// Created by Crowbar 0.74
version 1
nodes
  0 "bip_pelvis" -1
  1 "bip_spine_0" 0
  2 "bip_spine_1" 1
  3 "bip_spine_2" 2
  4 "bip_spine_3" 3
  5 "bip_neck" 4
  6 "bip_head" 5
  7 "slug_jiggle" 6
end
skeleton
  time 0
    0 0.000000 46.698845 -0.827201 -3.130702 0.000000 0.000000
    1 0.000000 -5.005421 0.000000 -0.241270 0.000000 0.000000
    2 0.000000 -5.178513 0.000001 -0.081909 0.000000 0.000000
    3 0.000000 -7.272385 -0.000012 0.297061 0.000000 0.000000
    4 0.000000 -4.878658 0.000007 0.226212 0.000000 0.000000
    5 0.000000 -4.423134 0.000004 -0.049979 0.000000 0.000000
    6 0.000000 -2.858559 0.000002 -0.161005 0.000000 0.000000
    7 1.247154 -7.937370 -2.415128 3.141234 -1.569051 1.871009
end
triangles
  phy
    0 47.612160 -38.741893 -2.553187 -0.268226 -0.491445 -0.828575 0 0
    0 47.084901 -38.468225 -3.579058 -0.637892 -0.413288 -0.649836 0 0
    0 47.373732 -34.918449 -4.021965 -0.442053 0.389756 -0.807886 0 0
  phy
    0 47.612160 -38.741893 -2.553187 -0.268226 -0.491445 -0.828575 0 0
    0 47.373732 -34.918449 -4.021965 -0.442053 0.389756 -0.807886 0 0
    0 47.938605 -38.348663 -1.476501 -0.051262 -0.211882 -0.975950 0 0
  phy
    0 44.959827 -41.540566 -2.268994 -0.450539 -0.886014 -0.109514 0 0
    0 47.084901 -38.468225 -3.579058 -0.637892 -0.413288 -0.649836 0 0
    0 47.612160 -38.741893 -2.553187 -0.268226 -0.491445 -0.828575 0 0
  phy
    0 44.959827 -41.540566 -2.268994 -0.450539 -0.886014 -0.109514 0 0
    0 47.612160 -38.741893 -2.553187 -0.268226 -0.491445 -0.828575 0 0
    0 45.347350 -41.690215 -0.282984 0.335078 -0.692939 -0.638403 0 0
  phy
    0 45.347350 -41.690215 -0.282984 0.335078 -0.692939 -0.638403 0 0
    0 47.612160 -38.741893 -2.553187 -0.268226 -0.491445 -0.828575 0 0
    0 47.938605 -38.348663 -1.476501 -0.051262 -0.211882 -0.975950 0 0
  phy
    0 44.959827 -41.540566 -2.268994 -0.450539 -0.886014 -0.109514 0 0
    0 46.044563 -38.598457 -4.194707 -0.864709 -0.347929 -0.362249 0 0
    0 47.084901 -38.468225 -3.579058 -0.637892 -0.413288 -0.649836 0 0
  phy
    0 46.044563 -38.598457 -4.194707 -0.864709 -0.347929 -0.362249 0 0
    0 44.959827 -41.540566 -2.268994 -0.450539 -0.886014 -0.109514 0 0
    0 44.959655 -38.290974 -4.465979 -0.967961 -0.249004 0.032396 0 0
  phy
    0 44.959827 -41.540566 -2.268994 -0.450539 -0.886014 -0.109514 0 0
    0 43.224494 -40.585611 -2.777699 -0.757102 -0.489573 0.432567 0 0
    0 44.959655 -38.290974 -4.465979 -0.967961 -0.249004 0.032396 0 0
  phy
    0 45.347350 -41.690215 -0.282984 0.335078 -0.692939 -0.638403 0 0
    0 43.766489 -40.935765 0.839036 0.824634 -0.529785 0.198260 0 0
    0 44.959827 -41.540566 -2.268994 -0.450539 -0.886014 -0.109514 0 0
  phy
    0 43.766489 -40.935765 0.839036 0.824634 -0.529785 0.198260 0 0
    0 42.349630 -40.248637 -1.747609 -0.126762 -0.415061 0.900919 0 0
    0 44.959827 -41.540566 -2.268994 -0.450539 -0.886014 -0.109514 0 0
  phy
    0 44.959827 -41.540566 -2.268994 -0.450539 -0.886014 -0.109514 0 0
    0 42.349630 -40.248637 -1.747609 -0.126762 -0.415061 0.900919 0 0
    0 43.224494 -40.585611 -2.777699 -0.757102 -0.489573 0.432567 0 0
  phy
    0 42.437049 -36.606148 -0.556547 0.271490 0.206334 0.940064 0 0
    0 42.349630 -40.248637 -1.747609 -0.126762 -0.415061 0.900919 0 0
    0 42.612281 -40.339355 0.262722 0.579316 -0.084339 0.810728 0 0
  phy
    0 42.612281 -40.339355 0.262722 0.579316 -0.084339 0.810728 0 0
    0 42.349630 -40.248637 -1.747609 -0.126762 -0.415061 0.900919 0 0
    0 43.766489 -40.935765 0.839036 0.824634 -0.529785 0.198260 0 0
  phy
    0 42.612281 -40.339355 0.262722 0.579316 -0.084339 0.810728 0 0
    0 43.766489 -40.935765 0.839036 0.824634 -0.529785 0.198260 0 0
    0 43.975150 -35.102851 1.030752 0.808992 0.289834 0.511398 0 0
  phy
    0 43.975150 -35.102851 1.030752 0.808992 0.289834 0.511398 0 0
    0 43.041026 -36.688669 0.430718 0.629739 0.111484 0.768765 0 0
    0 42.612281 -40.339355 0.262722 0.579316 -0.084339 0.810728 0 0
  phy
    0 42.612281 -40.339355 0.262722 0.579316 -0.084339 0.810728 0 0
    0 43.041026 -36.688669 0.430718 0.629739 0.111484 0.768765 0 0
    0 42.437049 -36.606148 -0.556547 0.271490 0.206334 0.940064 0 0
  phy
    0 42.437049 -36.606148 -0.556547 0.271490 0.206334 0.940064 0 0
    0 43.789842 -33.310646 -1.472106 -0.085265 0.934676 0.345124 0 0
    0 42.317466 -36.434949 -1.744452 -0.055678 0.204215 0.977341 0 0
  phy
    0 42.317466 -36.434949 -1.744452 -0.055678 0.204215 0.977341 0 0
    0 43.789842 -33.310646 -1.472106 -0.085265 0.934676 0.345124 0 0
    0 42.511727 -36.729096 -2.850679 -0.378070 0.252842 0.890581 0 0
  phy
    0 42.317466 -36.434949 -1.744452 -0.055678 0.204215 0.977341 0 0
    0 42.349630 -40.248637 -1.747609 -0.126762 -0.415061 0.900919 0 0
    0 42.437049 -36.606148 -0.556547 0.271490 0.206334 0.940064 0 0
  phy
    0 42.511727 -36.729096 -2.850679 -0.378070 0.252842 0.890581 0 0
    0 42.349630 -40.248637 -1.747609 -0.126762 -0.415061 0.900919 0 0
    0 42.317466 -36.434949 -1.744452 -0.055678 0.204215 0.977341 0 0
  phy
    0 45.347350 -41.690215 -0.282984 0.335078 -0.692939 -0.638403 0 0
    0 47.718286 -38.138285 -0.356644 0.431821 -0.279522 -0.857554 0 0
    0 46.997233 -38.098075 0.628612 0.786075 -0.235044 -0.571700 0 0
  phy
    0 45.347350 -41.690215 -0.282984 0.335078 -0.692939 -0.638403 0 0
    0 46.997233 -38.098075 0.628612 0.786075 -0.235044 -0.571700 0 0
    0 43.766489 -40.935765 0.839036 0.824634 -0.529785 0.198260 0 0
  phy
    0 47.718286 -38.138285 -0.356644 0.431821 -0.279522 -0.857554 0 0
    0 45.347350 -41.690215 -0.282984 0.335078 -0.692939 -0.638403 0 0
    0 47.938605 -38.348663 -1.476501 -0.051262 -0.211882 -0.975950 0 0
  phy
    0 47.084901 -38.468225 -3.579058 -0.637892 -0.413288 -0.649836 0 0
    0 46.044563 -38.598457 -4.194707 -0.864709 -0.347929 -0.362249 0 0
    0 47.373732 -34.918449 -4.021965 -0.442053 0.389756 -0.807886 0 0
  phy
    0 47.373732 -34.918449 -4.021965 -0.442053 0.389756 -0.807886 0 0
    0 46.044563 -38.598457 -4.194707 -0.864709 -0.347929 -0.362249 0 0
    0 46.822014 -34.867182 -4.342851 -0.886307 0.420600 -0.193794 0 0
  phy
    0 46.822014 -34.867182 -4.342851 -0.886307 0.420600 -0.193794 0 0
    0 46.044563 -38.598457 -4.194707 -0.864709 -0.347929 -0.362249 0 0
    0 44.959655 -38.290974 -4.465979 -0.967961 -0.249004 0.032396 0 0
  phy
    0 42.437049 -36.606148 -0.556547 0.271490 0.206334 0.940064 0 0
    0 43.041026 -36.688669 0.430718 0.629739 0.111484 0.768765 0 0
    0 43.975150 -35.102851 1.030752 0.808992 0.289834 0.511398 0 0
  phy
    0 43.975150 -35.102851 1.030752 0.808992 0.289834 0.511398 0 0
    0 43.789842 -33.310646 -1.472106 -0.085265 0.934676 0.345124 0 0
    0 42.437049 -36.606148 -0.556547 0.271490 0.206334 0.940064 0 0
  phy
    0 43.766489 -40.935765 0.839036 0.824634 -0.529785 0.198260 0 0
    0 46.997233 -38.098075 0.628612 0.786075 -0.235044 -0.571700 0 0
    0 46.188815 -37.423204 1.170265 0.902491 0.040211 -0.428827 0 0
  phy
    0 46.188815 -37.423204 1.170265 0.902491 0.040211 -0.428827 0 0
    0 45.011581 -37.290941 1.396114 0.997940 0.060244 0.022067 0 0
    0 43.766489 -40.935765 0.839036 0.824634 -0.529785 0.198260 0 0
  phy
    0 45.902260 -33.672044 0.503926 0.766311 0.598991 -0.232332 0 0
    0 45.011581 -37.290941 1.396114 0.997940 0.060244 0.022067 0 0
    0 46.188815 -37.423204 1.170265 0.902491 0.040211 -0.428827 0 0
  phy
    0 46.997233 -38.098075 0.628612 0.786075 -0.235044 -0.571700 0 0
    0 48.067499 -34.363003 -0.911561 0.212919 0.536371 -0.816683 0 0
    0 46.188815 -37.423204 1.170265 0.902491 0.040211 -0.428827 0 0
  phy
    0 46.188815 -37.423204 1.170265 0.902491 0.040211 -0.428827 0 0
    0 48.067499 -34.363003 -0.911561 0.212919 0.536371 -0.816683 0 0
    0 45.902260 -33.672044 0.503926 0.766311 0.598991 -0.232332 0 0
  phy
    0 46.997233 -38.098075 0.628612 0.786075 -0.235044 -0.571700 0 0
    0 47.718286 -38.138285 -0.356644 0.431821 -0.279522 -0.857554 0 0
    0 48.067499 -34.363003 -0.911561 0.212919 0.536371 -0.816683 0 0
  phy
    0 47.718286 -38.138285 -0.356644 0.431821 -0.279522 -0.857554 0 0
    0 47.938605 -38.348663 -1.476501 -0.051262 -0.211882 -0.975950 0 0
    0 48.067499 -34.363003 -0.911561 0.212919 0.536371 -0.816683 0 0
  phy
    0 43.766489 -40.935765 0.839036 0.824634 -0.529785 0.198260 0 0
    0 45.011581 -37.290941 1.396114 0.997940 0.060244 0.022067 0 0
    0 43.975150 -35.102851 1.030752 0.808992 0.289834 0.511398 0 0
  phy
    0 43.975150 -35.102851 1.030752 0.808992 0.289834 0.511398 0 0
    0 45.011581 -37.290941 1.396114 0.997940 0.060244 0.022067 0 0
    0 45.902260 -33.672044 0.503926 0.766311 0.598991 -0.232332 0 0
  phy
    0 43.975150 -35.102851 1.030752 0.808992 0.289834 0.511398 0 0
    0 45.902260 -33.672044 0.503926 0.766311 0.598991 -0.232332 0 0
    0 43.789842 -33.310646 -1.472106 -0.085265 0.934676 0.345124 0 0
  phy
    0 43.994532 -37.597076 -4.350724 -0.905816 -0.146264 0.397622 0 0
    0 44.342900 -34.309599 -4.230660 -0.811012 0.424053 0.403037 0 0
    0 44.959655 -38.290974 -4.465979 -0.967961 -0.249004 0.032396 0 0
  phy
    0 44.342900 -34.309599 -4.230660 -0.811012 0.424053 0.403037 0 0
    0 46.822014 -34.867182 -4.342851 -0.886307 0.420600 -0.193794 0 0
    0 44.959655 -38.290974 -4.465979 -0.967961 -0.249004 0.032396 0 0
  phy
    0 44.342900 -34.309599 -4.230660 -0.811012 0.424053 0.403037 0 0
    0 43.994532 -37.597076 -4.350724 -0.905816 -0.146264 0.397622 0 0
    0 42.993765 -37.421775 -3.710204 -0.680513 -0.071334 0.729255 0 0
  phy
    0 44.342900 -34.309599 -4.230660 -0.811012 0.424053 0.403037 0 0
    0 42.993765 -37.421775 -3.710204 -0.680513 -0.071334 0.729255 0 0
    0 42.511727 -36.729096 -2.850679 -0.378070 0.252842 0.890581 0 0
  phy
    0 42.511727 -36.729096 -2.850679 -0.378070 0.252842 0.890581 0 0
    0 43.789842 -33.310646 -1.472106 -0.085265 0.934676 0.345124 0 0
    0 44.342900 -34.309599 -4.230660 -0.811012 0.424053 0.403037 0 0
  phy
    0 46.822014 -34.867182 -4.342851 -0.886307 0.420600 -0.193794 0 0
    0 44.342900 -34.309599 -4.230660 -0.811012 0.424053 0.403037 0 0
    0 43.789842 -33.310646 -1.472106 -0.085265 0.934676 0.345124 0 0
  phy
    0 43.994532 -37.597076 -4.350724 -0.905816 -0.146264 0.397622 0 0
    0 43.224494 -40.585611 -2.777699 -0.757102 -0.489573 0.432567 0 0
    0 42.993765 -37.421775 -3.710204 -0.680513 -0.071334 0.729255 0 0
  phy
    0 43.224494 -40.585611 -2.777699 -0.757102 -0.489573 0.432567 0 0
    0 43.994532 -37.597076 -4.350724 -0.905816 -0.146264 0.397622 0 0
    0 44.959655 -38.290974 -4.465979 -0.967961 -0.249004 0.032396 0 0
  phy
    0 42.993765 -37.421775 -3.710204 -0.680513 -0.071334 0.729255 0 0
    0 42.349630 -40.248637 -1.747609 -0.126762 -0.415061 0.900919 0 0
    0 42.511727 -36.729096 -2.850679 -0.378070 0.252842 0.890581 0 0
  phy
    0 47.938605 -38.348663 -1.476501 -0.051262 -0.211882 -0.975950 0 0
    0 47.373732 -34.918449 -4.021965 -0.442053 0.389756 -0.807886 0 0
    0 48.067499 -34.363003 -0.911561 0.212919 0.536371 -0.816683 0 0
  phy
    0 47.373732 -34.918449 -4.021965 -0.442053 0.389756 -0.807886 0 0
    0 46.822014 -34.867182 -4.342851 -0.886307 0.420600 -0.193794 0 0
    0 43.789842 -33.310646 -1.472106 -0.085265 0.934676 0.345124 0 0
  phy
    0 48.067499 -34.363003 -0.911561 0.212919 0.536371 -0.816683 0 0
    0 47.373732 -34.918449 -4.021965 -0.442053 0.389756 -0.807886 0 0
    0 43.789842 -33.310646 -1.472106 -0.085265 0.934676 0.345124 0 0
  phy
    0 43.224494 -40.585611 -2.777699 -0.757102 -0.489573 0.432567 0 0
    0 42.349630 -40.248637 -1.747609 -0.126762 -0.415061 0.900919 0 0
    0 42.993765 -37.421775 -3.710204 -0.680513 -0.071334 0.729255 0 0
  phy
    0 45.902260 -33.672044 0.503926 0.766311 0.598991 -0.232332 0 0
    0 48.067499 -34.363003 -0.911561 0.212919 0.536371 -0.816683 0 0
    0 43.789842 -33.310646 -1.472106 -0.085265 0.934676 0.345124 0 0
end
